<?xml version="1.0" standalone="no"?>
<!DOCTYPE svg PUBLIC "-//W3C//DTD SVG 20010904//EN"
 "http://www.w3.org/TR/2001/REC-SVG-20010904/DTD/svg10.dtd">
<svg version="1.0" xmlns="http://www.w3.org/2000/svg"
 width="1024.000000pt" height="1024.000000pt" viewBox="0 0 1024.000000 1024.000000"
 preserveAspectRatio="xMidYMid meet">
<metadata>
Created by potrace 1.16, written by Peter Selinger 2001-2019
</metadata>
<g transform="translate(0.000000,1024.000000) scale(0.100000,-0.100000)"
fill="#955e30" stroke="none">
<path d="M4813 8682 c-38 -30 -123 -152 -167 -241 -52 -104 -90 -218 -106
-326 -24 -154 -20 -150 -68 -61 -59 108 -138 211 -235 303 -85 79 -131 112
-144 100 -3 -4 -9 -56 -11 -116 -7 -164 27 -332 102 -512 6 -13 -14 -28 -91
-69 -235 -126 -392 -241 -550 -402 -279 -288 -498 -691 -602 -1108 -17 -69
-49 -222 -71 -340 -22 -118 -56 -273 -75 -345 -159 -583 -178 -699 -179 -1050
-1 -193 3 -276 17 -365 103 -667 406 -1155 902 -1455 86 -52 273 -145 292
-145 23 0 22 -17 -3 -88 -27 -80 -49 -220 -40 -257 4 -16 13 -25 26 -25 62 0
232 100 348 205 57 52 66 57 87 47 18 -8 25 -22 31 -59 3 -26 17 -76 29 -110
23 -63 81 -163 95 -163 24 0 109 134 130 205 6 22 13 45 15 51 2 7 26 7 81 -3
42 -7 79 -15 81 -17 2 -2 13 -48 24 -102 24 -119 81 -267 133 -348 l37 -58 26
23 c36 35 125 174 157 247 15 34 35 94 44 132 l17 70 37 0 c33 0 37 -3 49 -37
19 -59 58 -133 98 -186 l36 -48 23 28 c39 47 82 141 95 206 18 88 37 88 128 2
39 -37 99 -87 132 -112 66 -48 229 -133 257 -133 38 0 33 185 -9 320 -11 35
-19 65 -17 67 1 2 52 17 112 33 277 77 486 170 689 305 443 295 691 785 721
1425 14 296 -30 580 -161 1037 -99 342 -131 502 -170 843 -33 286 -57 430
-100 603 -162 642 -528 1062 -1107 1268 -266 95 -452 123 -784 117 l-231 -4
-6 165 c-3 92 -13 204 -22 250 -18 93 -61 238 -73 245 -4 2 -17 -3 -29 -12z
m7 -323 c12 -92 11 -331 -1 -343 -7 -7 -151 -37 -156 -33 -2 2 20 52 47 112
28 59 49 109 47 112 -5 4 -63 -59 -89 -96 -10 -14 -19 -23 -21 -20 -17 18 63
251 119 346 33 57 38 50 54 -78z m-479 -287 c54 -81 61 -102 27 -80 -13 8 -41
25 -63 38 -47 28 -43 21 44 -74 l53 -60 -48 -22 c-60 -26 -63 -24 -104 79 -36
91 -60 193 -59 257 l0 45 50 -55 c28 -30 73 -88 100 -128z m1119 -162 c308
-37 610 -145 839 -297 121 -81 291 -254 374 -379 197 -297 306 -647 362 -1164
9 -80 23 -194 31 -253 9 -60 13 -111 10 -115 -4 -3 -64 -43 -134 -89 l-127
-83 150 0 151 0 18 -76 c9 -42 46 -176 81 -298 112 -387 142 -553 152 -821 22
-649 -221 -1193 -667 -1490 -226 -151 -501 -260 -833 -330 -572 -121 -982
-112 -1568 35 -333 84 -439 118 -574 186 -422 210 -709 552 -874 1039 -84 249
-117 492 -108 804 6 242 32 411 102 676 25 94 63 239 85 324 22 85 43 158 47
161 5 4 70 19 146 35 75 15 137 31 137 36 0 4 -57 26 -127 50 -71 23 -130 43
-131 45 -8 6 49 266 83 384 163 558 487 1011 910 1270 168 103 523 260 679
300 64 16 252 43 371 53 95 8 337 6 415 -3z m-1424 -5407 c35 -9 64 -20 64
-24 0 -15 -174 -149 -193 -149 -8 0 12 82 34 138 12 28 23 52 26 52 3 0 34 -8
69 -17z m411 -117 c7 -7 -27 -106 -36 -106 -4 0 -13 19 -20 43 -7 23 -15 51
-18 61 -5 17 -1 18 32 13 21 -3 40 -8 42 -11z m1427 -37 c21 -51 49 -170 42
-176 -10 -10 -236 159 -236 176 0 6 108 32 166 39 7 1 19 -17 28 -39z m-926
-34 c45 -4 84 -10 86 -14 12 -18 -87 -259 -113 -275 -18 -11 -90 210 -91 277
0 22 4 27 18 23 9 -2 54 -8 100 -11z m438 -37 c-11 -69 -22 -79 -40 -36 -26
61 -23 67 38 77 5 0 6 -18 2 -41z"/>
<path d="M5805 7497 c-51 -38 43 -146 149 -171 42 -10 80 17 71 52 -9 39 -52
81 -110 108 -57 27 -83 30 -110 11z"/>
<path d="M4483 7250 c-107 -65 62 -174 198 -129 70 24 89 67 47 107 -34 31
-72 42 -146 42 -49 0 -76 -5 -99 -20z"/>
<path d="M6124 6619 c-43 -47 -4 -157 85 -244 91 -88 184 -129 241 -105 75 31
56 138 -42 244 -99 109 -235 159 -284 105z"/>
<path d="M3621 6485 c-69 -20 -112 -46 -156 -98 -37 -43 -46 -92 -23 -115 15
-15 85 -15 129 0 83 28 176 107 193 164 16 51 -51 74 -143 49z"/>
<path d="M5120 5663 c-28 -10 -50 -36 -50 -58 0 -11 13 -42 29 -67 69 -109
262 -187 316 -128 38 42 -3 130 -90 190 -66 45 -168 76 -205 63z"/>
<path d="M3240 4943 c-45 -57 -5 -191 87 -293 116 -129 252 -120 241 16 -6 68
-40 134 -105 204 -90 97 -180 127 -223 73z"/>
<path d="M4523 3975 c-50 -35 -15 -125 71 -184 153 -106 307 -89 260 29 -42
105 -260 207 -331 155z"/>
<path d="M6649 3963 c-68 -33 -188 -152 -218 -216 -30 -63 -33 -137 -6 -167
17 -19 28 -21 70 -18 70 6 138 42 217 116 77 73 128 162 128 224 0 86 -84 114
-191 61z"/>
<path d="M3986 3254 c-64 -64 87 -210 209 -202 54 3 72 21 61 61 -10 42 -62
94 -128 127 -67 33 -118 38 -142 14z"/>
<path d="M6074 3091 c-64 -29 -70 -78 -13 -101 42 -18 154 -8 187 17 46 35 50
51 19 79 -23 20 -39 24 -90 24 -39 0 -77 -7 -103 -19z"/>
</g>
</svg>
